<?xml version="1.0" encoding="UTF-8" standalone="no"?>
<!-- Created with Inkscape (http://www.inkscape.org/) -->

<svg
   xmlns:dc="http://purl.org/dc/elements/1.1/"
   xmlns:cc="http://creativecommons.org/ns#"
   xmlns:rdf="http://www.w3.org/1999/02/22-rdf-syntax-ns#"
   xmlns:svg="http://www.w3.org/2000/svg"
   xmlns="http://www.w3.org/2000/svg"
   xmlns:sodipodi="http://sodipodi.sourceforge.net/DTD/sodipodi-0.dtd"
   xmlns:inkscape="http://www.inkscape.org/namespaces/inkscape"
   width="744.09448819"
   height="1052.3622047"
   id="svg2"
   version="1.1"
   inkscape:version="0.48.3.1 r9886"
   sodipodi:docname="intelligent_watch.svg">
  <defs
     id="defs4" />
  <sodipodi:namedview
     id="base"
     pagecolor="#ffffff"
     bordercolor="#666666"
     borderopacity="1.0"
     inkscape:pageopacity="0.0"
     inkscape:pageshadow="2"
     inkscape:zoom="0.49497475"
     inkscape:cx="188.56079"
     inkscape:cy="588.98176"
     inkscape:document-units="px"
     inkscape:current-layer="layer1"
     showgrid="false"
     inkscape:window-width="1366"
     inkscape:window-height="744"
     inkscape:window-x="0"
     inkscape:window-y="24"
     inkscape:window-maximized="1" />
  <metadata
     id="metadata7">
    <rdf:RDF>
      <cc:Work
         rdf:about="">
        <dc:format>image/svg+xml</dc:format>
        <dc:type
           rdf:resource="http://purl.org/dc/dcmitype/StillImage" />
        <dc:title></dc:title>
      </cc:Work>
    </rdf:RDF>
  </metadata>
  <g
     inkscape:label="Layer 1"
     inkscape:groupmode="layer"
     id="layer1">
    <path
       sodipodi:type="arc"
       style="fill:#ffffff;fill-opacity:1;stroke:#000000;stroke-width:1.21106017;stroke-opacity:1"
       id="path2985"
       sodipodi:cx="345.47217"
       sodipodi:cy="296.76807"
       sodipodi:rx="137.38075"
       sodipodi:ry="111.11678"
       d="m 482.85292,296.76807 a 137.38075,111.11678 0 1 1 -274.7615,0 137.38075,111.11678 0 1 1 274.7615,0 z"
       transform="matrix(1,0,0,0.68181819,0,59.070861)" />
    <path
       sodipodi:type="arc"
       style="fill:#ffffff;fill-opacity:1;stroke:#000000;stroke-width:1.21106017;stroke-opacity:1"
       id="path2985-4"
       sodipodi:cx="345.47217"
       sodipodi:cy="296.76807"
       sodipodi:rx="137.38075"
       sodipodi:ry="111.11678"
       d="m 482.85292,296.76807 a 137.38075,111.11678 0 1 1 -274.7615,0 137.38075,111.11678 0 1 1 274.7615,0 z"
       transform="matrix(1,0,0,0.68181819,2.848702e-6,25.73584)" />
    <path
       sodipodi:type="arc"
       style="fill:#ffffff;fill-opacity:1;stroke:#000000;stroke-width:1.21106017;stroke-opacity:1"
       id="path2985-4-9"
       sodipodi:cx="345.47217"
       sodipodi:cy="296.76807"
       sodipodi:rx="137.38075"
       sodipodi:ry="111.11678"
       d="m 482.85292,296.76807 a 137.38075,111.11678 0 1 1 -274.7615,0 137.38075,111.11678 0 1 1 274.7615,0 z"
       transform="matrix(-0.01572636,-0.99987633,0.68173387,-0.01072252,-17.07667,792.86189)" />
    <path
       sodipodi:type="arc"
       style="fill:#ffffff;fill-opacity:1;stroke:#000000;stroke-width:1.21106017;stroke-opacity:1"
       id="path2985-4-9-9"
       sodipodi:cx="345.47217"
       sodipodi:cy="296.76807"
       sodipodi:rx="137.38075"
       sodipodi:ry="111.11678"
       d="m 482.85292,296.76807 a 137.38075,111.11678 0 1 1 -274.7615,0 137.38075,111.11678 0 1 1 274.7615,0 z"
       transform="matrix(-0.01572636,-0.99987633,0.68173387,-0.01072252,328.3955,825.18678)" />
  </g>
</svg>
